<?xml version="1.0" encoding="UTF-8"?>
<svg width="1200" height="480" viewBox="0 0 1200 480" xmlns="http://www.w3.org/2000/svg" xmlns:xlink="http://www.w3.org/1999/xlink">
  <!-- Background -->
  <rect width="1200" height="480" fill="#FFFFFF"/>

  <!-- Left wing (three feathers) -->
  <g fill="#000000" transform="translate(220,240)">
    <path d="M-360,-22 C-240,-10 -160,-10 0,-10  L0,10 C-160,10 -240,10 -360,22 C-300,6 -260,2 -360,-22 Z"/>
    <path d="M-300,-50 C-200,-42 -120,-34 0,-34 L0,-14 C-120,-14 -200,-22 -300,-30 C-260,-40 -220,-46 -300,-50 Z"/>
    <path d="M-220,-78 C-140,-70 -80,-56 0,-56 L0,-36 C-80,-36 -140,-48 -220,-60 C-190,-68 -160,-74 -220,-78 Z"/>
  </g>

  <!-- Right wing (mirror) -->
  <g fill="#000000" transform="scale(-1,1) translate(-980,240)">
    <path d="M-360,-22 C-240,-10 -160,-10 0,-10  L0,10 C-160,10 -240,10 -360,22 C-300,6 -260,2 -360,-22 Z"/>
    <path d="M-300,-50 C-200,-42 -120,-34 0,-34 L0,-14 C-120,-14 -200,-22 -300,-30 C-260,-40 -220,-46 -300,-50 Z"/>
    <path d="M-220,-78 C-140,-70 -80,-56 0,-56 L0,-36 C-80,-36 -140,-48 -220,-60 C-190,-68 -160,-74 -220,-78 Z"/>
  </g>

  <!-- Central shield (distinct pentagonal/rounded shape) -->
  <g transform="translate(600,240)">
    <path d="M0,-110 C58,-110 92,-92 120,-80 150,-66 180,-40 180,12 180,64 150,88 120,102 92,114 52,130 0,130 -52,130 -92,114 -120,102 -150,88 -180,64 -180,12 -180,-40 -150,-66 -120,-80 -92,-92  -0,-110 Z"
          fill="#FFFFFF" stroke="#000000" stroke-width="18" stroke-linejoin="round"/>
    <!-- inner fill to create two-tone feel -->
    <path d="M0,-92 C48,-92 76,-78 100,-68 126,-56 150,-34 150,8 150,50 126,70 100,82 76,92 40,108 0,108 -40,108 -76,92 -100,82 -126,70 -150,50 -150,8 -150,-34 -126,-56 -100,-68 -76,-78 0,-92 Z"
          fill="#FFFFFF"/>
    <!-- Letter A -->
    <g transform="translate(0,14)">
      <path d="M-24,52 L-6, -26 L-32,-26 L-48,52 L-24,52 Z M -18,14 L -12,-4 L -30,-4 L -24,14 Z" fill="#000000"/>
      <!-- horizontal bar for A -->
      <rect x="-20" y="2" width="40" height="8" rx="2" fill="#000000"/>
    </g>
  </g>

  <!-- small spacing accent under shield -->
  <path d="M420,320 C510,365 690,365 780,320" stroke="#000000" stroke-width="6" stroke-linecap="round" fill="none" opacity="0.06"/>

</svg>